<svg xmlns="http://www.w3.org/2000/svg" viewBox="0 0 18 18">
  <!-- background: circle r=9 centered at 9,9 -->
  <path fill="#394F61"
        d="M 18 9 A 9 9 0 1 0 0 9 A 9 9 0 1 0 18 9 Z"/>

  <!-- mark -->
  <path fill="#FE5757"
        d="M 11.5 2.462
           A 7 7 0 0 0 5.5 15.062
           L 5.5 13.873
           A 6 6 0 0 1 10.5 3.191
           L 10.5 8.5
           L 7.5 8.5
           L 7.5 5.5
           L 6.5 5.5
           L 6.5 15.538
           A 7 7 0 0 0 12.5 2.938
           L 12.5 4.127
           A 6 6 0 0 1 7.5 14.809
           L 7.5 9.5
           L 10.5 9.5
           L 10.5 12.5
           L 11.5 12.5
           L 11.5 2.462
           Z"/>
</svg>
