<?xml version="1.0" encoding="utf-8" ?>
<svg baseProfile="tiny" height="132px" version="1.2" width="144px" xmlns="http://www.w3.org/2000/svg" xmlns:ev="http://www.w3.org/2001/xml-events" xmlns:xlink="http://www.w3.org/1999/xlink"><defs /><path d="M 94.00313725490196,110.0 L 95.0,109.00313725490196 L 96.0,109.00313725490196 L 97.0,109.00313725490196 L 98.0,109.00313725490196 L 98.00313725490196,109.0 L 99.0,108.00313725490196 L 100.0,108.00313725490196 L 100.00313725490196,108.0 L 101.0,107.00313725490196 L 102.0,107.00313725490196 L 103.0,107.00313725490196 L 103.00313725490196,107.0 L 104.0,106.00313725490196 L 105.0,106.00313725490196 L 105.00313725490196,106.0 L 106.0,105.00313725490196 L 106.00313725490196,105.0 L 107.0,104.00313725490196 L 108.0,104.00313725490196 L 108.00313725490196,104.0 L 109.0,103.00313725490196 L 109.00313725490196,103.0 L 110.0,102.00313725490196 L 111.0,102.00313725490196 L 111.00313725490196,102.0 L 112.0,101.00313725490196 L 112.00313725490196,101.0 L 113.0,100.00313725490196 L 113.00313725490196,100.0 L 114.0,99.00313725490196 L 114.00313725490196,99.0 L 115.0,98.00313725490196 L 115.00313725490196,98.0 L 116.0,97.00313725490196 L 116.00313725490196,97.0 L 117.0,96.00313725490196 L 117.00313725490196,96.0 L 118.0,95.00313725490196 L 118.00313725490196,95.0 L 119.0,94.00313725490196 L 119.00313725490196,94.0 L 120.0,93.00313725490196 L 120.00313725490196,93.0 L 120.00313725490196,92.0 L 121.0,91.00313725490196 L 121.00313725490196,91.0 L 122.0,90.00313725490196 L 122.00313725490196,90.0 L 122.00313725490196,89.0 L 123.0,88.00313725490196 L 123.00313725490196,88.0 L 123.00313725490196,87.0 L 124.0,86.00313725490196 L 124.00313725490196,86.0 L 124.00313725490196,85.0 L 125.0,84.00313725490196 L 125.00313725490196,84.0 L 125.00313725490196,83.0 L 126.0,82.00313725490196 L 126.00313725490196,82.0 L 126.00313725490196,81.0 L 126.00313725490196,80.0 L 127.0,79.00313725490196 L 127.00313725490196,79.0 L 127.00313725490196,78.0 L 127.00313725490196,77.0 L 127.00313725490196,76.0 L 127.00313725490196,75.0 L 128.0,74.00313725490196 L 128.00313725490196,74.0 L 128.00313725490196,73.0 L 128.00313725490196,72.0 L 128.00313725490196,71.0 L 128.00313725490196,70.0 L 128.00313725490196,69.0 L 128.00313725490196,68.0 L 128.00313725490196,67.0 L 128.00313725490196,66.0 L 128.00313725490196,65.0 L 128.00313725490196,64.0 L 128.00313725490196,63.0 L 128.00313725490196,62.0 L 128.00313725490196,61.0 L 128.00313725490196,60.0 L 128.0,59.99686274509804 L 127.00313725490196,59.0 L 127.00313725490196,58.0 L 127.00313725490196,57.0 L 127.00313725490196,56.0 L 127.0,55.99686274509804 L 126.00313725490196,55.0 L 126.00313725490196,54.0 L 126.00313725490196,53.0 L 126.0,52.99686274509804 L 125.00313725490196,52.0 L 125.00313725490196,51.0 L 125.00313725490196,50.0 L 125.0,49.99686274509804 L 124.00313725490196,49.0 L 124.00313725490196,48.0 L 124.0,47.99686274509804 L 123.00313725490196,47.0 L 123.00313725490196,46.0 L 123.0,45.99686274509804 L 122.00313725490196,45.0 L 122.0,44.99686274509804 L 121.00313725490196,44.0 L 121.00313725490196,43.0 L 121.0,42.99686274509804 L 120.00313725490196,42.0 L 120.0,41.99686274509804 L 119.00313725490196,41.0 L 119.00313725490196,40.0 L 119.0,39.99686274509804 L 118.00313725490196,39.0 L 118.0,38.99686274509804 L 117.00313725490196,38.0 L 117.0,37.99686274509804 L 116.00313725490196,37.0 L 116.0,36.99686274509804 L 115.00313725490196,36.0 L 115.0,35.99686274509804 L 114.00313725490196,35.0 L 114.0,34.99686274509804 L 113.99686274509804,35.0 L 113.99686274509804,36.0 L 113.99686274509804,37.0 L 113.99686274509804,38.0 L 113.99686274509804,39.0 L 113.99686274509804,40.0 L 113.99686274509804,41.0 L 114.0,41.00313725490196 L 114.99686274509804,42.0 L 115.0,42.00313725490196 L 115.99686274509804,43.0 L 116.0,43.00313725490196 L 116.99686274509804,44.0 L 116.99686274509804,45.0 L 117.0,45.00313725490196 L 117.99686274509804,46.0 L 118.0,46.00313725490196 L 118.99686274509804,47.0 L 118.99686274509804,48.0 L 119.0,48.00313725490196 L 119.99686274509804,49.0 L 119.99686274509804,50.0 L 120.0,50.00313725490196 L 120.99686274509804,51.0 L 120.99686274509804,52.0 L 121.0,52.00313725490196 L 121.99686274509804,53.0 L 121.99686274509804,54.0 L 121.99686274509804,55.0 L 122.0,55.00313725490196 L 122.99686274509804,56.0 L 122.99686274509804,57.0 L 122.99686274509804,58.0 L 122.99686274509804,59.0 L 123.0,59.00313725490196 L 123.99686274509804,60.0 L 123.99686274509804,61.0 L 123.99686274509804,62.0 L 123.99686274509804,63.0 L 123.99686274509804,64.0 L 123.99686274509804,65.0 L 123.99686274509804,66.0 L 123.99686274509804,67.0 L 123.99686274509804,68.0 L 123.99686274509804,69.0 L 123.99686274509804,70.0 L 123.99686274509804,71.0 L 123.99686274509804,72.0 L 123.99686274509804,73.0 L 123.99686274509804,74.0 L 123.0,74.99686274509804 L 122.99686274509804,75.0 L 122.99686274509804,76.0 L 122.99686274509804,77.0 L 122.99686274509804,78.0 L 122.0,78.99686274509804 L 121.99686274509804,79.0 L 121.99686274509804,80.0 L 121.99686274509804,81.0 L 121.0,81.99686274509804 L 120.99686274509804,82.0 L 120.99686274509804,83.0 L 120.0,83.99686274509804 L 119.99686274509804,84.0 L 119.99686274509804,85.0 L 119.0,85.99686274509804 L 118.99686274509804,86.0 L 118.99686274509804,87.0 L 118.0,87.99686274509804 L 117.99686274509804,88.0 L 117.99686274509804,89.0 L 117.0,89.99686274509804 L 116.99686274509804,90.0 L 116.0,90.99686274509804 L 115.99686274509804,91.0 L 115.0,91.99686274509804 L 114.99686274509804,92.0 L 114.99686274509804,93.0 L 114.0,93.99686274509804 L 113.99686274509804,94.0 L 113.0,94.99686274509804 L 112.99686274509804,95.0 L 112.0,95.99686274509804 L 111.99686274509804,96.0 L 111.0,96.99686274509804 L 110.99686274509804,97.0 L 110.0,97.99686274509804 L 109.0,97.99686274509804 L 108.99686274509804,98.0 L 108.0,98.99686274509804 L 107.99686274509804,99.0 L 107.0,99.99686274509804 L 106.99686274509804,100.0 L 106.0,100.99686274509804 L 105.0,100.99686274509804 L 104.99686274509804,101.0 L 104.0,101.99686274509804 L 103.0,101.99686274509804 L 102.99686274509804,102.0 L 102.0,102.99686274509804 L 101.0,102.99686274509804 L 100.99686274509804,103.0 L 100.0,103.99686274509804 L 99.0,103.99686274509804 L 98.99686274509804,104.0 L 98.0,104.99686274509804 L 97.0,104.99686274509804 L 96.0,104.99686274509804 L 95.99686274509804,105.0 L 95.0,105.99686274509804 L 94.0,105.99686274509804 L 93.0,105.99686274509804 L 92.0,105.99686274509804 L 91.0,105.99686274509804 L 90.0,105.99686274509804 L 89.99686274509804,106.0 L 89.0,106.99686274509804 L 88.0,106.99686274509804 L 87.0,106.99686274509804 L 86.0,106.99686274509804 L 85.0,106.99686274509804 L 84.0,106.99686274509804 L 83.0,106.99686274509804 L 82.0,106.99686274509804 L 81.0,106.99686274509804 L 80.00313725490196,106.0 L 80.0,105.99686274509804 L 79.0,105.99686274509804 L 78.0,105.99686274509804 L 77.0,105.99686274509804 L 76.0,105.99686274509804 L 75.00313725490196,105.0 L 75.0,104.99686274509804 L 74.0,104.99686274509804 L 73.0,104.99686274509804 L 72.00313725490196,104.0 L 72.00313725490196,103.0 L 72.00313725490196,102.0 L 72.00313725490196,101.0 L 72.00313725490196,100.0 L 72.00313725490196,99.0 L 72.00313725490196,98.0 L 72.00313725490196,97.0 L 72.00313725490196,96.0 L 72.00313725490196,95.0 L 72.00313725490196,94.0 L 72.00313725490196,93.0 L 72.00313725490196,92.0 L 72.00313725490196,91.0 L 72.00313725490196,90.0 L 72.00313725490196,89.0 L 72.00313725490196,88.0 L 72.00313725490196,87.0 L 72.00313725490196,86.0 L 72.00313725490196,85.0 L 72.00313725490196,84.0 L 72.00313725490196,83.0 L 72.00313725490196,82.0 L 72.00313725490196,81.0 L 72.00313725490196,80.0 L 72.00313725490196,79.0 L 72.00313725490196,78.0 L 72.00313725490196,77.0 L 72.00313725490196,76.0 L 72.00313725490196,75.0 L 72.00313725490196,74.0 L 72.00313725490196,73.0 L 72.00313725490196,72.0 L 72.00313725490196,71.0 L 72.00313725490196,70.0 L 73.0,69.00313725490196 L 73.00313725490196,69.0 L 74.0,68.00313725490196 L 75.0,68.00313725490196 L 76.0,68.00313725490196 L 77.0,68.00313725490196 L 78.0,68.00313725490196 L 79.0,68.00313725490196 L 80.0,68.00313725490196 L 81.0,68.00313725490196 L 82.0,68.00313725490196 L 83.0,68.00313725490196 L 84.0,68.00313725490196 L 85.0,68.00313725490196 L 86.0,68.00313725490196 L 87.0,68.00313725490196 L 88.0,68.00313725490196 L 89.0,68.00313725490196 L 90.0,68.00313725490196 L 91.0,68.00313725490196 L 92.0,68.00313725490196 L 93.0,68.00313725490196 L 94.0,68.00313725490196 L 95.0,68.00313725490196 L 96.0,68.00313725490196 L 97.0,68.00313725490196 L 97.99686274509804,69.0 L 97.99686274509804,70.0 L 97.99686274509804,71.0 L 97.99686274509804,72.0 L 97.99686274509804,73.0 L 97.99686274509804,74.0 L 97.99686274509804,75.0 L 97.99686274509804,76.0 L 97.99686274509804,77.0 L 97.99686274509804,78.0 L 97.99686274509804,79.0 L 97.99686274509804,80.0 L 97.99686274509804,81.0 L 97.99686274509804,82.0 L 98.0,82.00313725490196 L 99.0,82.00313725490196 L 100.0,82.00313725490196 L 101.0,82.00313725490196 L 102.0,82.00313725490196 L 103.0,82.00313725490196 L 103.00313725490196,82.0 L 103.00313725490196,81.0 L 103.00313725490196,80.0 L 103.00313725490196,79.0 L 103.00313725490196,78.0 L 103.00313725490196,77.0 L 103.00313725490196,76.0 L 103.00313725490196,75.0 L 103.00313725490196,74.0 L 103.00313725490196,73.0 L 103.00313725490196,72.0 L 103.00313725490196,71.0 L 103.00313725490196,70.0 L 103.00313725490196,69.0 L 103.00313725490196,68.0 L 103.00313725490196,67.0 L 103.00313725490196,66.0 L 103.00313725490196,65.0 L 103.00313725490196,64.0 L 103.00313725490196,63.0 L 103.00313725490196,62.0 L 103.00313725490196,61.0 L 103.00313725490196,60.0 L 103.00313725490196,59.0 L 103.00313725490196,58.0 L 103.00313725490196,57.0 L 103.00313725490196,56.0 L 103.00313725490196,55.0 L 103.00313725490196,54.0 L 103.00313725490196,53.0 L 103.00313725490196,52.0 L 103.00313725490196,51.0 L 103.00313725490196,50.0 L 103.00313725490196,49.0 L 103.00313725490196,48.0 L 103.00313725490196,47.0 L 103.00313725490196,46.0 L 103.00313725490196,45.0 L 103.00313725490196,44.0 L 103.00313725490196,43.0 L 103.00313725490196,42.0 L 103.00313725490196,41.0 L 103.00313725490196,40.0 L 103.00313725490196,39.0 L 103.00313725490196,38.0 L 103.00313725490196,37.0 L 103.00313725490196,36.0 L 103.00313725490196,35.0 L 103.00313725490196,34.0 L 103.00313725490196,33.0 L 103.00313725490196,32.0 L 103.00313725490196,31.0 L 103.00313725490196,30.0 L 103.00313725490196,29.0 L 103.00313725490196,28.0 L 103.0,27.99686274509804 L 102.00313725490196,27.0 L 102.0,26.99686274509804 L 101.0,26.99686274509804 L 100.00313725490196,26.0 L 100.0,25.99686274509804 L 99.0,25.99686274509804 L 98.0,25.99686274509804 L 97.0,25.99686274509804 L 96.00313725490196,25.0 L 96.0,24.99686274509804 L 95.0,24.99686274509804 L 94.0,24.99686274509804 L 93.0,24.99686274509804 L 92.00313725490196,24.0 L 92.0,23.99686274509804 L 91.0,23.99686274509804 L 90.0,23.99686274509804 L 89.0,23.99686274509804 L 88.0,23.99686274509804 L 87.0,23.99686274509804 L 86.0,23.99686274509804 L 85.0,23.99686274509804 L 84.0,23.99686274509804 L 83.0,23.99686274509804 L 82.0,23.99686274509804 L 81.0,23.99686274509804 L 80.0,23.99686274509804 L 79.0,23.99686274509804 L 78.0,23.99686274509804 L 77.99686274509804,24.0 L 77.0,24.99686274509804 L 76.0,24.99686274509804 L 75.0,24.99686274509804 L 74.0,24.99686274509804 L 73.99686274509804,25.0 L 73.0,25.99686274509804 L 72.0,25.99686274509804 L 71.0,25.99686274509804 L 70.99686274509804,26.0 L 70.0,26.99686274509804 L 69.0,26.99686274509804 L 68.0,26.99686274509804 L 67.99686274509804,27.0 L 67.0,27.99686274509804 L 66.0,27.99686274509804 L 65.99686274509804,28.0 L 65.0,28.99686274509804 L 64.0,28.99686274509804 L 63.99686274509804,29.0 L 63.0,29.99686274509804 L 62.99686274509804,30.0 L 62.0,30.99686274509804 L 61.0,30.99686274509804 L 60.99686274509804,31.0 L 60.0,31.99686274509804 L 59.99686274509804,32.0 L 59.0,32.99686274509804 L 58.99686274509804,33.0 L 58.0,33.99686274509804 L 57.0,33.99686274509804 L 56.99686274509804,34.0 L 56.0,34.99686274509804 L 55.99686274509804,35.0 L 55.0,35.99686274509804 L 54.99686274509804,36.0 L 54.0,36.99686274509804 L 53.99686274509804,37.0 L 53.0,37.99686274509804 L 52.99686274509804,38.0 L 52.0,38.99686274509804 L 51.99686274509804,39.0 L 51.99686274509804,40.0 L 51.0,40.99686274509804 L 50.99686274509804,41.0 L 50.0,41.99686274509804 L 49.99686274509804,42.0 L 49.99686274509804,43.0 L 49.0,43.99686274509804 L 48.99686274509804,44.0 L 48.0,44.99686274509804 L 47.99686274509804,45.0 L 47.99686274509804,46.0 L 47.0,46.99686274509804 L 46.99686274509804,47.0 L 46.99686274509804,48.0 L 46.0,48.99686274509804 L 45.99686274509804,49.0 L 45.99686274509804,50.0 L 45.0,50.99686274509804 L 44.99686274509804,51.0 L 44.99686274509804,52.0 L 44.99686274509804,53.0 L 44.0,53.99686274509804 L 43.99686274509804,54.0 L 43.99686274509804,55.0 L 43.99686274509804,56.0 L 43.99686274509804,57.0 L 43.0,57.99686274509804 L 42.99686274509804,58.0 L 42.99686274509804,59.0 L 42.99686274509804,60.0 L 42.99686274509804,61.0 L 42.99686274509804,62.0 L 42.99686274509804,63.0 L 42.99686274509804,64.0 L 42.99686274509804,65.0 L 42.99686274509804,66.0 L 42.99686274509804,67.0 L 42.99686274509804,68.0 L 42.99686274509804,69.0 L 42.99686274509804,70.0 L 42.99686274509804,71.0 L 42.99686274509804,72.0 L 42.99686274509804,73.0 L 42.99686274509804,74.0 L 42.99686274509804,75.0 L 42.99686274509804,76.0 L 43.0,76.00313725490196 L 43.99686274509804,77.0 L 43.99686274509804,78.0 L 43.99686274509804,79.0 L 43.99686274509804,80.0 L 44.0,80.00313725490196 L 44.99686274509804,81.0 L 44.99686274509804,82.0 L 44.99686274509804,83.0 L 45.0,83.00313725490196 L 45.99686274509804,84.0 L 45.99686274509804,85.0 L 46.0,85.00313725490196 L 46.99686274509804,86.0 L 46.99686274509804,87.0 L 47.0,87.00313725490196 L 47.99686274509804,88.0 L 47.99686274509804,89.0 L 48.0,89.00313725490196 L 48.99686274509804,90.0 L 49.0,90.00313725490196 L 49.99686274509804,91.0 L 49.99686274509804,92.0 L 50.0,92.00313725490196 L 50.99686274509804,93.0 L 51.0,93.00313725490196 L 51.99686274509804,94.0 L 51.99686274509804,95.0 L 52.0,95.00313725490196 L 52.99686274509804,96.0 L 53.0,96.00313725490196 L 53.99686274509804,97.0 L 54.0,97.00313725490196 L 54.99686274509804,98.0 L 55.0,98.00313725490196 L 55.99686274509804,99.0 L 56.0,99.00313725490196 L 56.99686274509804,100.0 L 57.0,100.00313725490196 L 57.99686274509804,101.0 L 58.0,101.00313725490196 L 58.00313725490196,101.0 L 58.00313725490196,100.0 L 58.00313725490196,99.0 L 58.00313725490196,98.0 L 58.00313725490196,97.0 L 58.00313725490196,96.0 L 58.00313725490196,95.0 L 58.0,94.99686274509804 L 57.00313725490196,94.0 L 57.0,93.99686274509804 L 56.00313725490196,93.0 L 56.0,92.99686274509804 L 55.00313725490196,92.0 L 55.0,91.99686274509804 L 54.00313725490196,91.0 L 54.0,90.99686274509804 L 53.00313725490196,90.0 L 53.00313725490196,89.0 L 53.0,88.99686274509804 L 52.00313725490196,88.0 L 52.0,87.99686274509804 L 51.00313725490196,87.0 L 51.00313725490196,86.0 L 51.0,85.99686274509804 L 50.00313725490196,85.0 L 50.00313725490196,84.0 L 50.0,83.99686274509804 L 49.00313725490196,83.0 L 49.00313725490196,82.0 L 49.00313725490196,81.0 L 49.0,80.99686274509804 L 48.00313725490196,80.0 L 48.00313725490196,79.0 L 48.00313725490196,78.0 L 48.0,77.99686274509804 L 47.00313725490196,77.0 L 47.00313725490196,76.0 L 47.00313725490196,75.0 L 47.00313725490196,74.0 L 47.00313725490196,73.0 L 47.00313725490196,72.0 L 47.0,71.99686274509804 L 46.00313725490196,71.0 L 46.00313725490196,70.0 L 46.00313725490196,69.0 L 46.00313725490196,68.0 L 46.00313725490196,67.0 L 46.00313725490196,66.0 L 46.00313725490196,65.0 L 46.00313725490196,64.0 L 47.0,63.00313725490196 L 47.00313725490196,63.0 L 47.00313725490196,62.0 L 47.00313725490196,61.0 L 47.00313725490196,60.0 L 47.00313725490196,59.0 L 47.00313725490196,58.0 L 48.0,57.00313725490196 L 48.00313725490196,57.0 L 48.00313725490196,56.0 L 48.00313725490196,55.0 L 48.00313725490196,54.0 L 49.0,53.00313725490196 L 49.00313725490196,53.0 L 49.00313725490196,52.0 L 50.0,51.00313725490196 L 50.00313725490196,51.0 L 50.00313725490196,50.0 L 51.0,49.00313725490196 L 51.00313725490196,49.0 L 51.00313725490196,48.0 L 52.0,47.00313725490196 L 52.00313725490196,47.0 L 52.00313725490196,46.0 L 53.0,45.00313725490196 L 53.00313725490196,45.0 L 54.0,44.00313725490196 L 54.00313725490196,44.0 L 54.00313725490196,43.0 L 55.0,42.00313725490196 L 55.00313725490196,42.0 L 56.0,41.00313725490196 L 56.00313725490196,41.0 L 57.0,40.00313725490196 L 57.00313725490196,40.0 L 58.0,39.00313725490196 L 58.00313725490196,39.0 L 59.0,38.00313725490196 L 59.00313725490196,38.0 L 60.0,37.00313725490196 L 60.00313725490196,37.0 L 61.0,36.00313725490196 L 62.0,36.00313725490196 L 62.00313725490196,36.0 L 63.0,35.00313725490196 L 63.00313725490196,35.0 L 64.0,34.00313725490196 L 64.00313725490196,34.0 L 65.0,33.00313725490196 L 66.0,33.00313725490196 L 66.00313725490196,33.0 L 67.0,32.00313725490196 L 68.0,32.00313725490196 L 68.00313725490196,32.0 L 69.0,31.00313725490196 L 70.0,31.00313725490196 L 70.00313725490196,31.0 L 71.0,30.00313725490196 L 72.0,30.00313725490196 L 73.0,30.00313725490196 L 73.00313725490196,30.0 L 74.0,29.00313725490196 L 75.0,29.00313725490196 L 76.0,29.00313725490196 L 77.0,29.00313725490196 L 77.00313725490196,29.0 L 78.0,28.00313725490196 L 79.0,28.00313725490196 L 80.0,28.00313725490196 L 81.0,28.00313725490196 L 82.0,28.00313725490196 L 83.0,28.00313725490196 L 84.0,28.00313725490196 L 85.0,28.00313725490196 L 86.0,28.00313725490196 L 87.0,28.00313725490196 L 88.0,28.00313725490196 L 89.0,28.00313725490196 L 90.0,28.00313725490196 L 91.0,28.00313725490196 L 92.0,28.00313725490196 L 93.0,28.00313725490196 L 93.99686274509804,29.0 L 94.0,29.00313725490196 L 95.0,29.00313725490196 L 96.0,29.00313725490196 L 97.0,29.00313725490196 L 97.99686274509804,30.0 L 97.99686274509804,31.0 L 97.99686274509804,32.0 L 97.99686274509804,33.0 L 97.99686274509804,34.0 L 97.99686274509804,35.0 L 97.99686274509804,36.0 L 97.99686274509804,37.0 L 97.99686274509804,38.0 L 97.99686274509804,39.0 L 97.99686274509804,40.0 L 97.99686274509804,41.0 L 97.99686274509804,42.0 L 97.99686274509804,43.0 L 97.99686274509804,44.0 L 97.99686274509804,45.0 L 97.99686274509804,46.0 L 97.99686274509804,47.0 L 97.99686274509804,48.0 L 97.99686274509804,49.0 L 97.99686274509804,50.0 L 97.99686274509804,51.0 L 97.99686274509804,52.0 L 97.99686274509804,53.0 L 97.99686274509804,54.0 L 97.99686274509804,55.0 L 97.99686274509804,56.0 L 97.99686274509804,57.0 L 97.99686274509804,58.0 L 97.99686274509804,59.0 L 97.99686274509804,60.0 L 97.99686274509804,61.0 L 97.99686274509804,62.0 L 97.99686274509804,63.0 L 97.99686274509804,64.0 L 97.99686274509804,65.0 L 97.0,65.99686274509804 L 96.0,65.99686274509804 L 95.0,65.99686274509804 L 94.0,65.99686274509804 L 93.0,65.99686274509804 L 92.0,65.99686274509804 L 91.0,65.99686274509804 L 90.0,65.99686274509804 L 89.0,65.99686274509804 L 88.0,65.99686274509804 L 87.0,65.99686274509804 L 86.0,65.99686274509804 L 85.0,65.99686274509804 L 84.0,65.99686274509804 L 83.0,65.99686274509804 L 82.0,65.99686274509804 L 81.0,65.99686274509804 L 80.0,65.99686274509804 L 79.0,65.99686274509804 L 78.0,65.99686274509804 L 77.0,65.99686274509804 L 76.0,65.99686274509804 L 75.0,65.99686274509804 L 74.0,65.99686274509804 L 73.0,65.99686274509804 L 72.00313725490196,65.0 L 72.00313725490196,64.0 L 72.00313725490196,63.0 L 72.00313725490196,62.0 L 72.00313725490196,61.0 L 72.00313725490196,60.0 L 72.00313725490196,59.0 L 72.00313725490196,58.0 L 72.00313725490196,57.0 L 72.00313725490196,56.0 L 72.00313725490196,55.0 L 72.00313725490196,54.0 L 72.00313725490196,53.0 L 72.00313725490196,52.0 L 72.0,51.99686274509804 L 71.0,51.99686274509804 L 70.0,51.99686274509804 L 69.0,51.99686274509804 L 68.0,51.99686274509804 L 67.0,51.99686274509804 L 66.99686274509804,52.0 L 66.99686274509804,53.0 L 66.99686274509804,54.0 L 66.99686274509804,55.0 L 66.99686274509804,56.0 L 66.99686274509804,57.0 L 66.99686274509804,58.0 L 66.99686274509804,59.0 L 66.99686274509804,60.0 L 66.99686274509804,61.0 L 66.99686274509804,62.0 L 66.99686274509804,63.0 L 66.99686274509804,64.0 L 66.99686274509804,65.0 L 66.99686274509804,66.0 L 66.99686274509804,67.0 L 66.99686274509804,68.0 L 66.99686274509804,69.0 L 66.99686274509804,70.0 L 66.99686274509804,71.0 L 66.99686274509804,72.0 L 66.99686274509804,73.0 L 66.99686274509804,74.0 L 66.99686274509804,75.0 L 66.99686274509804,76.0 L 66.99686274509804,77.0 L 66.99686274509804,78.0 L 66.99686274509804,79.0 L 66.99686274509804,80.0 L 66.99686274509804,81.0 L 66.99686274509804,82.0 L 66.99686274509804,83.0 L 66.99686274509804,84.0 L 66.99686274509804,85.0 L 66.99686274509804,86.0 L 66.99686274509804,87.0 L 66.99686274509804,88.0 L 66.99686274509804,89.0 L 66.99686274509804,90.0 L 66.99686274509804,91.0 L 66.99686274509804,92.0 L 66.99686274509804,93.0 L 66.99686274509804,94.0 L 66.99686274509804,95.0 L 66.99686274509804,96.0 L 66.99686274509804,97.0 L 66.99686274509804,98.0 L 66.99686274509804,99.0 L 66.99686274509804,100.0 L 66.99686274509804,101.0 L 66.99686274509804,102.0 L 66.99686274509804,103.0 L 66.99686274509804,104.0 L 66.99686274509804,105.0 L 66.99686274509804,106.0 L 67.0,106.00313725490196 L 67.99686274509804,107.0 L 68.0,107.00313725490196 L 69.0,107.00313725490196 L 69.99686274509804,108.0 L 70.0,108.00313725490196 L 71.0,108.00313725490196 L 72.0,108.00313725490196 L 72.99686274509804,109.0 L 73.0,109.00313725490196 L 74.0,109.00313725490196 L 75.0,109.00313725490196 L 76.0,109.00313725490196 L 76.99686274509804,110.0 L 77.0,110.00313725490196 L 78.0,110.00313725490196 L 79.0,110.00313725490196 L 80.0,110.00313725490196 L 81.0,110.00313725490196 L 82.0,110.00313725490196 L 83.0,110.00313725490196 L 84.0,110.00313725490196 L 85.0,110.00313725490196 L 86.0,110.00313725490196 L 87.0,110.00313725490196 L 88.0,110.00313725490196 L 89.0,110.00313725490196 L 90.0,110.00313725490196 L 91.0,110.00313725490196 L 92.0,110.00313725490196 L 93.0,110.00313725490196 L 94.0,110.00313725490196 L 94.00313725490196,110.0 Z" fill="#EC6E68" /></svg>